<svg version="1.1" id="Layer_1" xmlns="http://www.w3.org/2000/svg" xmlns:xlink="http://www.w3.org/1999/xlink" x="0px" y="0px" viewBox="0 0 474.5 473.4" style="enable-background:new 0 0 474.5 473.4;" xml:space="preserve">
 <style type="text/css">
  .st0{fill:#002E6E;}
 </style>
 <g>
  <path class="st0" d="M113.2,268.1L113.2,268.1V139.4h51.7v128.5c0,20,16.2,36.2,36.2,36.2s36.2-16.2,36.2-36.2
		s-16.2-36.2-36.2-36.2h-15.6v-51.5h15.6c48.5,0,87.9,39.1,87.9,87.6c0,48.2-39.4,87.6-87.9,87.6
		C152.6,355.8,113.2,316.7,113.2,268.1 M339,278.4c16.2,0,29.4,13.2,29.4,29.1c0,16.2-13.2,29.1-29.4,29.1s-29.4-13.2-29.4-29.1
		C309.6,291.4,322.5,278.4,339,278.4 M339,199.9c16.2,0,29.4,13.2,29.4,29.1c0,16.2-13.2,29.1-29.4,29.1s-29.4-13.2-29.4-29.1
		C309.6,213.2,322.5,199.9,339,199.9 M474.5,236.7C474.5,106.1,368.4,0,237.3,0C106.1,0,0,105.8,0,236.7v236.7h237.3
		C368.1,473.4,474.5,367.2,474.5,236.7">
  </path>
  <g>
   <path class="st0" d="M426,411.7c-9.4,0-16.5,7.1-16.5,16.5s7.1,17.1,16.5,16.5c8.8,0,16.5-7.1,16.5-16.5S435.5,411.7,426,411.7z
			 M426,441.8c-7.6,0-13.5-5.3-13.5-13.5c0-7.6,5.9-13.5,13.5-13.5c7.6,0,13.5,5.9,13.5,13.5C439.6,436.5,433.7,441.8,426,441.8z">
   </path>
   <path class="st0" d="M432.6,424.2c0-3.3-2.7-5.4-6-5.4h-7.1v17.9h3.9v-6.5h2.2l3.3,6.5h4.9l-4.4-7.1
			C431.5,428.6,432.6,426.4,432.6,424.2z M425.3,427h-2v-4.9h2c2.3,0,3.4,0.5,3.4,2.2C428.7,426.4,427,427,425.3,427z">
   </path>
  </g>
 </g>
</svg>